<svg width="174" height="75" viewBox="0 0 174 75" fill="none" xmlns="http://www.w3.org/2000/svg">
<path d="M50.5506 45.9914C50.4788 45.9213 50.4222 45.8372 50.3844 45.7443C50.3465 45.6514 50.3282 45.5517 50.3306 45.4514V24.7914C50.3229 24.5812 50.3984 24.3764 50.5406 24.2214C50.6102 24.1462 50.6957 24.0874 50.7908 24.0493C50.8859 24.0113 50.9883 23.9949 51.0906 24.0014H53.6606C53.8672 23.9952 54.0713 24.0484 54.2486 24.1548C54.4258 24.2612 54.5688 24.4161 54.6606 24.6014L60.7806 35.9614L66.9006 24.6014C66.9914 24.4154 67.1342 24.2597 67.3117 24.1532C67.4892 24.0467 67.6938 23.9939 67.9006 24.0014H70.4406C70.5456 23.9972 70.6503 24.0146 70.7484 24.0524C70.8464 24.0903 70.9356 24.1478 71.0106 24.2214C71.1555 24.3754 71.2345 24.5799 71.2306 24.7914V45.4414C71.2334 45.5447 71.2154 45.6475 71.1776 45.7437C71.1398 45.84 71.083 45.9276 71.0106 46.0014C70.852 46.1364 70.6488 46.2077 70.4406 46.2014H67.6306C67.5301 46.2057 67.4298 46.1882 67.3366 46.1503C67.2434 46.1123 67.1595 46.0547 67.0906 45.9814C67.0175 45.9118 66.9593 45.828 66.9198 45.7352C66.8802 45.6423 66.8601 45.5423 66.8606 45.4414V31.8014L62.4506 40.1814C62.3706 40.383 62.2332 40.5568 62.0555 40.6812C61.8777 40.8056 61.6675 40.8752 61.4506 40.8814H60.0706C59.8435 40.8758 59.6224 40.8075 59.4317 40.6839C59.2411 40.5603 59.0884 40.3864 58.9906 40.1814L54.5806 31.8014V45.4414C54.5833 45.64 54.512 45.8324 54.3806 45.9814C54.3083 46.0557 54.2209 46.1138 54.1243 46.1517C54.0278 46.1897 53.9242 46.2066 53.8206 46.2014H51.0906C50.991 46.2051 50.8918 46.1884 50.7989 46.1522C50.706 46.1161 50.6215 46.0614 50.5506 45.9914Z" fill="white"/>
<path d="M77.5401 45.8822C76.6937 45.488 75.9634 44.8817 75.4201 44.1222C74.7781 43.1976 74.5233 42.0585 74.7102 40.9485C74.8971 39.8385 75.5108 38.8457 76.4201 38.1822C77.8424 37.1917 79.4883 36.5698 81.2101 36.3722L85.5601 35.7422V35.0722C85.5857 34.6996 85.537 34.3256 85.4168 33.972C85.2966 33.6184 85.1074 33.2921 84.8601 33.0122C84.5554 32.7535 84.202 32.5583 83.8208 32.4381C83.4396 32.3179 83.0382 32.2751 82.6401 32.3122C82.0531 32.2876 81.4701 32.4187 80.9501 32.6922C80.5907 32.9169 80.2556 33.1783 79.9501 33.4722L79.4301 33.9922C79.4087 34.1025 79.3485 34.2014 79.2605 34.2711C79.1724 34.3408 79.0623 34.3767 78.9501 34.3722H76.4201C76.3299 34.3752 76.2399 34.3599 76.1557 34.3273C76.0715 34.2946 75.9948 34.2453 75.9301 34.1822C75.8601 34.1198 75.8049 34.0425 75.7686 33.956C75.7323 33.8695 75.7157 33.7759 75.7201 33.6822C75.7953 33.018 76.0669 32.3913 76.5001 31.8822C77.1159 31.1259 77.9048 30.529 78.8001 30.1422C80.0112 29.623 81.3238 29.3838 82.6401 29.4422C85.1268 29.4422 86.9468 30.0022 88.1001 31.1222C88.6733 31.7021 89.1209 32.3939 89.415 33.1543C89.7092 33.9147 89.8437 34.7276 89.8101 35.5422V45.4422C89.8142 45.6429 89.7387 45.837 89.6001 45.9822C89.5305 46.0574 89.4451 46.1162 89.3499 46.1542C89.2548 46.1923 89.1524 46.2087 89.0501 46.2022H86.4101C86.3098 46.2046 86.2101 46.1863 86.1172 46.1485C86.0243 46.1106 85.9402 46.054 85.8701 45.9822C85.7289 45.838 85.6498 45.6441 85.6501 45.4422V44.2122C85.138 44.9314 84.4492 45.5066 83.6501 45.8822C82.6557 46.345 81.5664 46.5677 80.4701 46.5322C79.4573 46.5365 78.4562 46.3144 77.5401 45.8822ZM84.4501 42.3422C84.8432 41.8923 85.1436 41.3691 85.3341 40.8028C85.5245 40.2366 85.6014 39.6382 85.5601 39.0422V38.4422L82.3801 38.9422C79.9535 39.3222 78.7401 40.1389 78.7401 41.3922C78.73 41.7046 78.8023 42.0142 78.9497 42.2898C79.0972 42.5654 79.3146 42.7973 79.5801 42.9622C80.1774 43.34 80.8737 43.5315 81.5801 43.5122C82.1136 43.5279 82.6445 43.432 83.1388 43.2305C83.633 43.029 84.0797 42.7264 84.4501 42.3422Z" fill="white"/>
<path d="M94.131 52.0405C94.05 51.9642 93.9873 51.8706 93.9475 51.7668C93.9076 51.6629 93.8918 51.5514 93.901 51.4405V30.4405C93.8965 30.3375 93.9148 30.2349 93.9545 30.1398C93.9943 30.0447 94.0545 29.9596 94.131 29.8905C94.2019 29.8205 94.2864 29.7657 94.3793 29.7296C94.4721 29.6935 94.5714 29.6768 94.671 29.6805H97.201C97.3044 29.6736 97.4082 29.6882 97.5058 29.7234C97.6033 29.7586 97.6925 29.8137 97.7676 29.8851C97.8428 29.9565 97.9024 30.0427 97.9425 30.1383C97.9827 30.2339 98.0026 30.3368 98.001 30.4405V31.7405C98.5788 30.973 99.3381 30.3611 100.211 29.9597C101.084 29.5582 102.042 29.3798 103.001 29.4405C103.932 29.3675 104.867 29.5099 105.734 29.8567C106.602 30.2036 107.377 30.7455 108.001 31.4405C109.22 32.9774 109.87 34.8889 109.841 36.8505C109.841 37.1005 109.841 37.4805 109.841 37.9905C109.841 38.5005 109.841 38.8805 109.841 39.1305C109.854 41.059 109.204 42.9334 108.001 44.4405C107.383 45.1265 106.617 45.6631 105.761 46.0096C104.906 46.3561 103.982 46.5034 103.061 46.4405C102.13 46.4915 101.201 46.3129 100.355 45.9206C99.5096 45.5283 98.7732 44.9342 98.211 44.1905V51.4405C98.2157 51.5432 98.1995 51.6458 98.1634 51.742C98.1273 51.8383 98.072 51.9262 98.001 52.0005C97.8511 52.1369 97.6535 52.2088 97.451 52.2005H94.671C94.4772 52.2173 94.2843 52.1601 94.131 52.0405ZM105.461 38.9105C105.461 38.7005 105.461 38.3805 105.461 37.9605C105.461 37.5405 105.461 37.2205 105.461 36.9605C105.314 34.1738 104.108 32.7772 101.841 32.7705C101.33 32.7327 100.817 32.8195 100.347 33.0232C99.8768 33.227 99.4629 33.5417 99.141 33.9405C98.5199 34.7675 98.1705 35.7667 98.141 36.8005C98.141 37.0505 98.141 37.4605 98.141 38.0105C98.141 38.5605 98.141 39.0105 98.141 39.2405C98.1605 40.2275 98.5129 41.1789 99.141 41.9405C99.4711 42.3178 99.8837 42.6142 100.347 42.8067C100.81 42.9991 101.311 43.0826 101.811 43.0505C104.101 43.1005 105.311 41.7105 105.461 38.9105Z" fill="white"/>
<path d="M114.869 44.5024C113.4 42.9417 112.606 40.8648 112.659 38.7224V37.9324C112.53 35.66 113.274 33.424 114.739 31.6824C116.307 30.2101 118.378 29.3906 120.529 29.3906C122.68 29.3906 124.751 30.2101 126.319 31.6824C127.75 33.3789 128.483 35.5558 128.369 37.7724V38.4424C128.369 38.6442 128.29 38.8382 128.149 38.9824C127.992 39.1288 127.784 39.2078 127.569 39.2024H116.999V39.4424C116.989 40.5259 117.341 41.5818 117.999 42.4424C118.292 42.82 118.67 43.1223 119.103 43.3241C119.537 43.5259 120.012 43.6213 120.489 43.6024C121.07 43.62 121.646 43.4963 122.169 43.242C122.691 42.9877 123.144 42.6104 123.489 42.1424C123.607 41.9726 123.757 41.8267 123.929 41.7124C124.102 41.6503 124.285 41.6231 124.469 41.6324H127.269C127.446 41.627 127.619 41.6836 127.759 41.7924C127.825 41.8446 127.877 41.9117 127.912 41.9882C127.947 42.0647 127.963 42.1484 127.959 42.2324C127.875 42.9181 127.557 43.5539 127.059 44.0324C126.33 44.8028 125.448 45.4125 124.469 45.8224C123.239 46.3528 121.908 46.612 120.569 46.5824C119.528 46.6392 118.486 46.4842 117.506 46.1267C116.526 45.7691 115.629 45.2166 114.869 44.5024ZM123.959 36.5024V36.4424C124.016 35.362 123.682 34.2972 123.019 33.4424C122.71 33.0697 122.319 32.7737 121.877 32.5776C121.434 32.3816 120.952 32.2908 120.469 32.3124C119.987 32.29 119.506 32.3805 119.065 32.5767C118.624 32.7729 118.235 33.0693 117.929 33.4424C117.281 34.304 116.955 35.3655 117.009 36.4424V36.5024H123.959Z" fill="white"/>
<path d="M133.26 44.6307C132.562 43.943 132.008 43.1224 131.632 42.2172C131.256 41.3121 131.065 40.3408 131.07 39.3607V37.9607V36.5607C131.068 35.5813 131.264 34.6115 131.645 33.7094C132.027 32.8073 132.586 31.9914 133.29 31.3107C134.941 30.0647 136.952 29.3906 139.02 29.3906C141.088 29.3906 143.1 30.0647 144.75 31.3107C145.456 31.9917 146.019 32.8069 146.405 33.7085C146.792 34.6101 146.994 35.5798 147 36.5607C147 36.8207 147 37.2807 147 37.9607C147 38.6407 147 39.1007 147 39.3607C147.001 40.3402 146.808 41.3102 146.432 42.2147C146.056 43.1192 145.505 43.9403 144.81 44.6307C143.144 45.8648 141.124 46.5309 139.05 46.5309C136.976 46.5309 134.957 45.8648 133.29 44.6307H133.26ZM141.62 42.2807C142.297 41.3989 142.65 40.3116 142.62 39.2007C142.62 38.9907 142.62 38.5707 142.62 37.9607C142.62 37.3507 142.62 36.9607 142.62 36.7207C142.657 35.6057 142.303 34.5128 141.62 33.6307C141.294 33.2658 140.887 32.9806 140.433 32.7968C139.979 32.6131 139.489 32.5357 139 32.5707C138.515 32.541 138.03 32.6209 137.58 32.8044C137.13 32.9879 136.727 33.2703 136.4 33.6307C135.722 34.5152 135.369 35.6064 135.4 36.7207V37.9607V39.2007C135.367 40.3122 135.72 41.4008 136.4 42.2807C136.733 42.6291 137.139 42.8995 137.588 43.0724C138.038 43.2453 138.52 43.3164 139 43.2807C139.484 43.3216 139.971 43.253 140.425 43.0799C140.878 42.9067 141.287 42.6336 141.62 42.2807Z" fill="white"/>
<path d="M25.82 24C24.6622 23.9987 23.5155 24.2256 22.4455 24.6678C21.3755 25.1099 20.4031 25.7586 19.5839 26.5769C18.7648 27.3951 18.1149 28.3667 17.6716 29.4363C17.2282 30.5058 17 31.6522 17 32.81C17 37.68 25.82 50.44 25.82 50.44C25.82 50.44 34.63 37.68 34.63 32.81C34.63 30.4734 33.7018 28.2326 32.0496 26.5804C30.3974 24.9282 28.1566 24 25.82 24ZM25.82 37.22C25.0289 37.22 24.2555 36.9854 23.5977 36.5459C22.9399 36.1064 22.4272 35.4816 22.1245 34.7507C21.8217 34.0198 21.7425 33.2156 21.8969 32.4396C22.0512 31.6637 22.4322 30.951 22.9916 30.3916C23.551 29.8322 24.2637 29.4512 25.0396 29.2969C25.8156 29.1425 26.6198 29.2217 27.3507 29.5245C28.0816 29.8272 28.7064 30.3399 29.1459 30.9977C29.5854 31.6555 29.82 32.4289 29.82 33.22C29.82 34.2809 29.3986 35.2983 28.6484 36.0484C27.8983 36.7986 26.8809 37.22 25.82 37.22Z" fill="white"/>
<path d="M101.844 64.0703C101.891 63.7266 101.857 63.4401 101.742 63.2109C101.628 62.9766 101.461 62.7812 101.242 62.625C101.023 62.4635 100.779 62.3307 100.508 62.2266C100.237 62.1172 99.9661 62.0156 99.6953 61.9219C99.3047 61.7865 98.9193 61.6276 98.5391 61.4453C98.1641 61.263 97.8255 61.0443 97.5234 60.7891C97.2214 60.5286 96.9844 60.2214 96.8125 59.8672C96.6458 59.513 96.5807 59.099 96.6172 58.625C96.6589 58.099 96.8073 57.638 97.0625 57.2422C97.3177 56.8411 97.6432 56.5078 98.0391 56.2422C98.4349 55.9766 98.8698 55.7786 99.3438 55.6484C99.8177 55.5182 100.297 55.4583 100.781 55.4688C101.453 55.4844 102.055 55.6354 102.586 55.9219C103.117 56.2031 103.531 56.599 103.828 57.1094C104.125 57.6198 104.255 58.2214 104.219 58.9141L102.75 58.9062C102.786 58.4531 102.729 58.0651 102.578 57.7422C102.427 57.4141 102.193 57.1615 101.875 56.9844C101.562 56.8073 101.177 56.7135 100.719 56.7031C100.302 56.6927 99.9036 56.7552 99.5234 56.8906C99.1484 57.026 98.8307 57.237 98.5703 57.5234C98.3099 57.8047 98.151 58.1667 98.0938 58.6094C98.0521 58.9167 98.0938 59.1797 98.2188 59.3984C98.3438 59.6172 98.5156 59.8021 98.7344 59.9531C98.9583 60.1042 99.2005 60.2318 99.4609 60.3359C99.7266 60.4401 99.9792 60.5312 100.219 60.6094C100.635 60.75 101.036 60.9167 101.422 61.1094C101.812 61.2969 102.156 61.526 102.453 61.7969C102.755 62.0625 102.984 62.3802 103.141 62.75C103.302 63.1198 103.362 63.5547 103.32 64.0547C103.273 64.5964 103.12 65.0651 102.859 65.4609C102.599 65.8568 102.266 66.1823 101.859 66.4375C101.453 66.6875 101.008 66.8724 100.523 66.9922C100.039 67.112 99.5521 67.1667 99.0625 67.1562C98.5521 67.151 98.0677 67.0703 97.6094 66.9141C97.1562 66.7526 96.7552 66.5234 96.4062 66.2266C96.0573 65.9297 95.7891 65.5703 95.6016 65.1484C95.4141 64.7214 95.3333 64.237 95.3594 63.6953L96.8203 63.7031C96.7943 64.0677 96.8333 64.388 96.9375 64.6641C97.0417 64.9401 97.1979 65.1719 97.4062 65.3594C97.6198 65.5417 97.8724 65.6823 98.1641 65.7812C98.4557 65.875 98.776 65.9245 99.125 65.9297C99.5365 65.9401 99.9375 65.8828 100.328 65.7578C100.724 65.6328 101.06 65.4323 101.336 65.1562C101.612 64.8802 101.781 64.5182 101.844 64.0703ZM109.844 64.9688L110.953 58.5469H112.375L110.906 67H109.555L109.844 64.9688ZM110.375 63.2656L110.953 63.2422C110.885 63.7734 110.766 64.2786 110.594 64.7578C110.422 65.2318 110.188 65.6536 109.891 66.0234C109.599 66.388 109.234 66.6745 108.797 66.8828C108.365 67.0859 107.852 67.1797 107.258 67.1641C106.794 67.1484 106.406 67.0547 106.094 66.8828C105.786 66.7109 105.544 66.4792 105.367 66.1875C105.19 65.8958 105.073 65.5625 105.016 65.1875C104.958 64.8125 104.951 64.4167 104.992 64L105.906 58.5469H107.32L106.406 64.0234C106.385 64.2526 106.383 64.4792 106.398 64.7031C106.414 64.9219 106.461 65.1224 106.539 65.3047C106.617 65.487 106.737 65.6354 106.898 65.75C107.065 65.8594 107.284 65.9193 107.555 65.9297C108.117 65.9505 108.594 65.8464 108.984 65.6172C109.375 65.3828 109.685 65.0599 109.914 64.6484C110.143 64.237 110.297 63.776 110.375 63.2656ZM115.617 60.2578L113.883 70.25H112.461L114.492 58.5469H115.789L115.617 60.2578ZM120.703 62.6562L120.688 62.8203C120.62 63.3307 120.495 63.8464 120.312 64.3672C120.135 64.8828 119.893 65.3542 119.586 65.7812C119.279 66.2083 118.901 66.5495 118.453 66.8047C118.01 67.0599 117.49 67.1797 116.891 67.1641C116.365 67.1536 115.914 67.0391 115.539 66.8203C115.164 66.5964 114.862 66.3021 114.633 65.9375C114.404 65.5677 114.24 65.1562 114.141 64.7031C114.047 64.2448 114.016 63.776 114.047 63.2969L114.156 62.4297C114.245 61.9193 114.393 61.4219 114.602 60.9375C114.815 60.4479 115.086 60.0078 115.414 59.6172C115.742 59.2266 116.13 58.9219 116.578 58.7031C117.031 58.4792 117.544 58.375 118.117 58.3906C118.695 58.4062 119.164 58.5469 119.523 58.8125C119.888 59.0729 120.164 59.4141 120.352 59.8359C120.544 60.2526 120.664 60.7083 120.711 61.2031C120.758 61.6927 120.755 62.1771 120.703 62.6562ZM119.266 62.8125L119.289 62.6406C119.326 62.3281 119.333 61.9974 119.312 61.6484C119.297 61.2995 119.232 60.974 119.117 60.6719C119.008 60.3646 118.833 60.112 118.594 59.9141C118.359 59.7161 118.039 59.612 117.633 59.6016C117.31 59.5911 117.003 59.6458 116.711 59.7656C116.424 59.8802 116.164 60.0443 115.93 60.2578C115.695 60.4661 115.495 60.7083 115.328 60.9844C115.161 61.2552 115.039 61.5417 114.961 61.8438L114.625 63.8828C114.62 64.2526 114.701 64.5964 114.867 64.9141C115.034 65.2266 115.26 65.4792 115.547 65.6719C115.839 65.8646 116.169 65.9661 116.539 65.9766C116.971 65.987 117.346 65.901 117.664 65.7188C117.987 65.5312 118.258 65.2812 118.477 64.9688C118.695 64.651 118.87 64.3047 119 63.9297C119.13 63.5495 119.219 63.1771 119.266 62.8125ZM125.328 67.1562C124.75 67.1458 124.247 67.0312 123.82 66.8125C123.398 66.5885 123.052 66.2891 122.781 65.9141C122.516 65.5339 122.326 65.1016 122.211 64.6172C122.096 64.1328 122.062 63.625 122.109 63.0938L122.141 62.7578C122.193 62.2161 122.326 61.6849 122.539 61.1641C122.753 60.638 123.036 60.1641 123.391 59.7422C123.75 59.3203 124.172 58.987 124.656 58.7422C125.146 58.4922 125.688 58.375 126.281 58.3906C126.87 58.401 127.359 58.526 127.75 58.7656C128.141 59.0052 128.445 59.3229 128.664 59.7188C128.888 60.1094 129.034 60.5495 129.102 61.0391C129.169 61.5234 129.174 62.0208 129.117 62.5312L129.031 63.1797H122.898L123.086 62L127.766 62.0078L127.789 61.8828C127.841 61.5078 127.82 61.1458 127.727 60.7969C127.633 60.4479 127.461 60.1615 127.211 59.9375C126.966 59.7083 126.635 59.5885 126.219 59.5781C125.786 59.5625 125.411 59.651 125.094 59.8438C124.776 60.0312 124.51 60.2865 124.297 60.6094C124.083 60.9271 123.914 61.276 123.789 61.6562C123.669 62.0312 123.586 62.3984 123.539 62.7578L123.508 63.0859C123.477 63.4193 123.487 63.7552 123.539 64.0938C123.591 64.4323 123.69 64.7422 123.836 65.0234C123.987 65.2995 124.195 65.526 124.461 65.7031C124.727 65.875 125.055 65.9661 125.445 65.9766C125.919 65.987 126.344 65.8854 126.719 65.6719C127.099 65.4531 127.445 65.1771 127.758 64.8438L128.562 65.5312C128.318 65.8906 128.026 66.1927 127.688 66.4375C127.349 66.6823 126.979 66.8646 126.578 66.9844C126.177 67.1042 125.76 67.1615 125.328 67.1562ZM132.625 59.9375L131.398 67H129.984L131.453 58.5469H132.828L132.625 59.9375ZM135.367 58.4766L135.234 59.8359C135.125 59.8151 135.013 59.7969 134.898 59.7812C134.789 59.7656 134.68 59.7578 134.57 59.7578C134.232 59.7526 133.927 59.8047 133.656 59.9141C133.391 60.0182 133.154 60.1667 132.945 60.3594C132.742 60.5521 132.568 60.7786 132.422 61.0391C132.281 61.2995 132.169 61.5807 132.086 61.8828L131.641 62.1172C131.698 61.6953 131.792 61.263 131.922 60.8203C132.057 60.3776 132.242 59.9688 132.477 59.5938C132.716 59.2188 133.016 58.9167 133.375 58.6875C133.74 58.4583 134.177 58.3516 134.688 58.3672C134.802 58.3672 134.914 58.3776 135.023 58.3984C135.138 58.4193 135.253 58.4453 135.367 58.4766ZM141.844 64.0703C141.891 63.7266 141.857 63.4401 141.742 63.2109C141.628 62.9766 141.461 62.7812 141.242 62.625C141.023 62.4635 140.779 62.3307 140.508 62.2266C140.237 62.1172 139.966 62.0156 139.695 61.9219C139.305 61.7865 138.919 61.6276 138.539 61.4453C138.164 61.263 137.826 61.0443 137.523 60.7891C137.221 60.5286 136.984 60.2214 136.812 59.8672C136.646 59.513 136.581 59.099 136.617 58.625C136.659 58.099 136.807 57.638 137.062 57.2422C137.318 56.8411 137.643 56.5078 138.039 56.2422C138.435 55.9766 138.87 55.7786 139.344 55.6484C139.818 55.5182 140.297 55.4583 140.781 55.4688C141.453 55.4844 142.055 55.6354 142.586 55.9219C143.117 56.2031 143.531 56.599 143.828 57.1094C144.125 57.6198 144.255 58.2214 144.219 58.9141L142.75 58.9062C142.786 58.4531 142.729 58.0651 142.578 57.7422C142.427 57.4141 142.193 57.1615 141.875 56.9844C141.562 56.8073 141.177 56.7135 140.719 56.7031C140.302 56.6927 139.904 56.7552 139.523 56.8906C139.148 57.026 138.831 57.237 138.57 57.5234C138.31 57.8047 138.151 58.1667 138.094 58.6094C138.052 58.9167 138.094 59.1797 138.219 59.3984C138.344 59.6172 138.516 59.8021 138.734 59.9531C138.958 60.1042 139.201 60.2318 139.461 60.3359C139.727 60.4401 139.979 60.5312 140.219 60.6094C140.635 60.75 141.036 60.9167 141.422 61.1094C141.812 61.2969 142.156 61.526 142.453 61.7969C142.755 62.0625 142.984 62.3802 143.141 62.75C143.302 63.1198 143.362 63.5547 143.32 64.0547C143.273 64.5964 143.12 65.0651 142.859 65.4609C142.599 65.8568 142.266 66.1823 141.859 66.4375C141.453 66.6875 141.008 66.8724 140.523 66.9922C140.039 67.112 139.552 67.1667 139.062 67.1562C138.552 67.151 138.068 67.0703 137.609 66.9141C137.156 66.7526 136.755 66.5234 136.406 66.2266C136.057 65.9297 135.789 65.5703 135.602 65.1484C135.414 64.7214 135.333 64.237 135.359 63.6953L136.82 63.7031C136.794 64.0677 136.833 64.388 136.938 64.6641C137.042 64.9401 137.198 65.1719 137.406 65.3594C137.62 65.5417 137.872 65.6823 138.164 65.7812C138.456 65.875 138.776 65.9245 139.125 65.9297C139.536 65.9401 139.938 65.8828 140.328 65.7578C140.724 65.6328 141.06 65.4323 141.336 65.1562C141.612 64.8802 141.781 64.5182 141.844 64.0703Z" fill="white"/>
</svg>
